<?xml version="1.0" encoding="utf-8"?>
<!-- Generator: Adobe Illustrator 17.0.0, SVG Export Plug-In . SVG Version: 6.00 Build 0)  -->
<!DOCTYPE svg PUBLIC "-//W3C//DTD SVG 1.1//EN" "http://www.w3.org/Graphics/SVG/1.1/DTD/svg11.dtd">
<svg version="1.1" id="Layer_1" xmlns="http://www.w3.org/2000/svg" xmlns:xlink="http://www.w3.org/1999/xlink" x="0px" y="0px"
	 width="300px" height="200px" viewBox="0 0 300 200" enable-background="new 0 0 300 200" xml:space="preserve">
<g>
	<circle fill="#ED1C24" cx="194.25" cy="95.674" r="63.25"/>
	
		<ellipse transform="matrix(0.9762 -0.2171 0.2171 0.9762 -16.1372 44.4506)" fill="#FFF200" cx="194.25" cy="95.674" rx="40.75" ry="63.25"/>
	
		<ellipse transform="matrix(0.9762 -0.2171 0.2171 0.9762 -16.1372 44.4506)" fill="#2E3192" cx="194.25" cy="95.674" rx="17.25" ry="63.25"/>
</g>
<polyline fill="#FBB040" points="0,145.365 68.632,155.771 130.984,159.5 179,156 246.5,148.44 270,152.432 294.5,148.44 
	300,148.44 300,200 0,200 "/>
<g>
	<circle fill="#ED1C24" cx="52.997" cy="133.468" r="20.161"/>
	
		<ellipse transform="matrix(0.9153 -0.4027 0.4027 0.9153 -49.264 32.6462)" fill="#FFF200" cx="52.997" cy="133.468" rx="12.989" ry="20.161"/>
	
		<ellipse transform="matrix(0.9153 -0.4027 0.4027 0.9153 -49.264 32.6462)" fill="#2E3192" cx="52.997" cy="133.468" rx="5.499" ry="20.161"/>
</g>
</svg>
